<svg width="30" height="30" viewBox="0 0 30 30" fill="none" xmlns="http://www.w3.org/2000/svg">
<circle cx="15" cy="15" r="15" fill="#F3F3F3"/>
<path d="M20.5543 15.5441H18.9163V13.9698H20.5543C20.8005 13.9698 21 13.7705 21 13.5243C21 13.2781 20.8005 13.0787 20.5543 13.0787H18.9163V10.8942C18.9163 10.5754 18.8533 10.3413 18.729 10.1987C18.611 10.0631 18.4558 10 18.2408 10C18.0357 10 17.8864 10.0627 17.7706 10.1975C17.6478 10.3402 17.5855 10.5747 17.5855 10.8944V13.0789H14.5042L13.1941 11.0964C13.0819 10.9195 12.9765 10.7537 12.8741 10.5947C12.7819 10.4514 12.692 10.3347 12.6071 10.2476C12.5319 10.1705 12.4463 10.1108 12.3461 10.065C12.2515 10.0218 12.1313 10.0001 11.9891 10.0001C11.8077 10.0001 11.6431 10.0498 11.4854 10.1519C11.3294 10.2529 11.2216 10.3778 11.1557 10.5336C11.0979 10.6818 11.0673 10.9087 11.0673 11.2017V13.0788H9.44548C9.19939 13.0788 9 13.2783 9 13.5244C9 13.7706 9.19939 13.97 9.44551 13.97H11.0673V15.5444H9.44551C9.19939 15.5444 9 15.7438 9 15.9901C9 16.2362 9.19939 16.4354 9.44551 16.4354H11.0673V18.9295C11.0673 19.239 11.1323 19.4706 11.2611 19.6179C11.3836 19.7582 11.5389 19.8234 11.7498 19.8234C11.9532 19.8234 12.1073 19.7579 12.2351 19.6173C12.3659 19.4732 12.4321 19.2417 12.4321 18.9296V16.4354H15.2203L16.7292 18.7491C16.8341 18.9021 16.9424 19.0565 17.0505 19.2078C17.148 19.3437 17.2543 19.4635 17.3665 19.5635C17.4676 19.654 17.5759 19.7203 17.6885 19.7608C17.8044 19.8025 17.9399 19.8237 18.0903 19.8237C18.4983 19.8237 18.9162 19.6988 18.9162 18.7723V16.4354H20.5543C20.8004 16.4354 21 16.2359 21 15.9898C21 15.7437 20.8005 15.5441 20.5543 15.5441ZM17.5855 13.9698V15.5441H16.1336L15.0934 13.9698H17.5855ZM12.4321 12.1609L13.0308 13.0787H12.4321V12.1609ZM12.4321 15.5441V13.9698H13.6122L14.6391 15.5441H12.4321ZM17.5855 17.7415L16.7226 16.4354H17.5855V17.7415Z" fill="#9CA2AA"/>
</svg>
