<svg width="24" height="24" viewBox="0 0 24 24" fill="none" xmlns="http://www.w3.org/2000/svg">
<circle cx="12" cy="12" r="12" fill="#F3F3F3"/>
<path d="M15.6189 7.72697C15.6266 7.35915 15.6126 7.12674 15.6126 7.12674L12.0182 7.12402H12H11.9818L8.38696 7.12674C8.38696 7.12674 8.37338 7.35915 8.38114 7.72697H6V8.11963C6 8.20925 6.01513 10.3235 7.31997 11.4816C7.86433 11.9647 8.54333 12.2076 9.34377 12.208C9.46482 12.208 9.58937 12.1998 9.71547 12.1889C10.1702 12.8117 10.6956 13.2478 11.2865 13.4651V15.1897H9.55173V16.2699H8.97866V16.8756H11.9818H12.0182H15.0213V16.2703H14.4479V15.1901H12.7131V13.4655C13.3037 13.2482 13.8294 12.8121 14.2841 12.1893C14.411 12.2002 14.5356 12.208 14.6566 12.208C15.4567 12.2072 16.1357 11.9647 16.68 11.4812C17.9849 10.3231 18 8.20887 18 8.11924V7.72697H15.6189ZM7.84377 10.8961C7.09842 10.2365 6.87804 9.10747 6.81286 8.51228H8.42615C8.49444 9.25374 8.65507 10.1776 9.02561 10.9896C9.09351 11.1386 9.1649 11.2799 9.23784 11.418C8.68184 11.3967 8.21392 11.2232 7.84377 10.8961ZM16.1562 10.8961C15.7865 11.2236 15.3182 11.3967 14.7625 11.418C14.8355 11.2803 14.9069 11.1386 14.9748 10.9896C15.3453 10.1776 15.5059 9.25374 15.5738 8.51228H17.1871C17.122 9.10708 16.902 10.2362 16.1562 10.8961Z" fill="#9CA2AA"/>
</svg>
